<?xml version="1.0" encoding="utf-8"?>
<!-- Generator: Adobe Illustrator 23.0.2, SVG Export Plug-In . SVG Version: 6.00 Build 0)  -->
<svg version="1.1" id="Layer_1" xmlns="http://www.w3.org/2000/svg" xmlns:xlink="http://www.w3.org/1999/xlink" x="0px" y="0px"
	 viewBox="0 0 60 60" style="enable-background:new 0 0 60 60;" xml:space="preserve">
<style type="text/css">
	.st0{fill:#525252;}
</style>
<path class="st0" d="M52,6c-0.1,0-0.1,0-0.2,0H40c-1.1,0-2,0.9-2,2s0.9,2,2,2c0,0,0,0,0.1,0h7.2L26.6,30.6c-0.8,0.8-0.8,2-0.1,2.8
	s2,0.8,2.8,0.1c0,0,0,0,0.1-0.1L50,12.8V20c0,1.1,0.9,2,2,2c1.1,0,2-0.9,2-2c0,0,0,0,0-0.1V8.3c0.2-1.1-0.6-2.1-1.7-2.3
	C52.2,6,52.1,6,52,6z M12,14c-2.2,0-4,1.8-4,4v30c0,2.2,1.8,4,4,4h30c2.2,0,4-1.8,4-4V28v-5.2l-4,4V32v16H12V18h16h4h1.2l4-4H32h-4
	H12z"/>
</svg>
